# This file uses centimeters as units for non-parametric coordinates.

v -55.228621 19.942941 143.247392
v 54.676335 19.942941 143.247392
v 55.780907 19.942941 31.133296
v -55.228621 19.942941 31.133296
vn 0.000000 1.000000 0.000000
vn 0.000000 1.000000 0.000000
vn 0.000000 1.000000 0.000000
vn 0.000000 1.000000 0.000000
vn 0.000000 1.000000 0.000000
vn 0.000000 1.000000 0.000000
f 1//1 2//2 3//3
f 3//4 4//5 1//6
v -86.942375 0.000000 178.532043
v 86.072952 0.000000 178.532043
v 87.811798 0.000000 2.039028
v -86.942375 0.000000 2.039028
vn 0.000000 1.000000 0.000000
vn 0.000000 1.000000 0.000000
vn 0.000000 1.000000 0.000000
vn 0.000000 1.000000 0.000000
vn 0.000000 1.000000 0.000000
vn 0.000000 1.000000 0.000000
f 5//7 6//8 7//9
f 7//10 8//11 5//12
